<svg width="759" height="714" viewBox="0 0 759 714" fill="none" xmlns="http://www.w3.org/2000/svg">
<rect width="759" height="714" rx="100" fill="white"/>
<path d="M616 0H659C714.228 0 759 44.7715 759 100V614C759 669.228 714.228 714 659 714H616V0Z" fill="#4639FF"/>
<g filter="url(#filter0_d_0_1)">
<path d="M555.221 436.171C574.551 436.304 590.328 420.741 590.461 401.412C590.593 382.082 575.031 366.305 555.701 366.173L555.221 436.171ZM353.633 299.266C366.913 285.22 366.291 263.068 352.245 249.788C338.199 236.509 316.047 237.13 302.767 251.176L353.633 299.266ZM423.009 319.241L455.793 331.498L456.127 330.604L456.412 329.693L423.009 319.241ZM231.125 583.027L230.368 618.019L234.538 618.109L238.613 617.217L231.125 583.027ZM236.815 265.745L203.493 255.04L236.815 265.745ZM314.501 166.8L303.53 133.564L314.501 166.8ZM347.263 399.745L347.023 434.744L347.263 399.745ZM215.673 441.965L204.301 408.864L215.673 441.965ZM207.968 582.526L208.726 547.534L207.968 582.526ZM346.052 525.072L313.268 512.815L346.052 525.072ZM470.206 115.405L459.235 82.1684L470.206 115.405ZM482.884 127.887L449.481 117.435L482.884 127.887ZM195.552 539.079L189.197 525.967L126.205 556.495L132.56 569.607L195.552 539.079ZM227.044 475.066L342.047 435.557L319.303 369.355L204.301 408.864L227.044 475.066ZM347.023 434.744L555.221 436.171L555.701 366.173L347.503 364.745L347.023 434.744ZM459.235 82.1684L303.53 133.564L325.471 200.036L481.176 148.641L459.235 82.1684ZM279.978 145.684L248.2 168.937L289.537 225.428L321.315 202.175L279.978 145.684ZM217.469 211.536L203.493 255.04L270.138 276.45L284.114 232.946L217.469 211.536ZM326.606 327.853L353.633 299.266L302.767 251.176L275.74 279.763L326.606 327.853ZM449.481 117.435L389.606 308.789L456.412 329.693L516.287 138.339L449.481 117.435ZM390.226 306.984L313.268 512.815L378.835 537.33L455.793 331.498L390.226 306.984ZM287.973 534.747L223.637 548.838L238.613 617.217L302.949 603.127L287.973 534.747ZM231.883 548.036L208.726 547.534L207.211 617.518L230.368 618.019L231.883 548.036ZM241.373 343.486C270.154 357.412 304.641 351.087 326.606 327.853L275.74 279.763C274.741 280.821 273.171 281.108 271.862 280.475L241.373 343.486ZM203.493 255.04C192.312 289.843 208.468 327.565 241.373 343.486L271.862 280.475C270.365 279.75 269.629 278.034 270.138 276.45L203.493 255.04ZM248.2 168.937C233.716 179.536 222.958 194.448 217.469 211.536L284.114 232.946C285.083 229.93 286.981 227.299 289.537 225.428L248.2 168.937ZM303.53 133.564C295.094 136.348 287.147 140.438 279.978 145.684L321.315 202.175C322.58 201.249 323.983 200.527 325.471 200.036L303.53 133.564ZM342.047 435.557C343.648 435.007 345.33 434.732 347.023 434.744L347.503 364.745C337.91 364.68 328.376 366.238 319.303 369.355L342.047 435.557ZM188.301 517.619C193.106 497.751 207.713 481.707 227.044 475.066L204.301 408.864C162.37 423.27 130.684 458.07 120.262 501.164L188.301 517.619ZM189.197 525.967C187.94 523.372 187.623 520.421 188.301 517.619L120.262 501.164C115.77 519.739 117.871 539.297 126.205 556.495L189.197 525.967ZM132.56 569.607C146.477 598.325 175.306 616.827 207.211 617.518L208.726 547.534C203.096 547.412 198.008 544.147 195.552 539.079L132.56 569.607ZM313.268 512.815C309.107 523.946 299.581 532.205 287.973 534.747L302.949 603.127C337.774 595.499 366.35 570.723 378.835 537.33L313.268 512.815ZM481.176 148.641C461.847 155.021 443.402 136.861 449.481 117.435L516.287 138.339C527.228 103.371 494.028 70.684 459.235 82.1684L481.176 148.641Z" fill="#4639FF"/>
</g>
<defs>
<filter id="filter0_d_0_1" x="113.952" y="79.8272" width="480.509" height="546.282" filterUnits="userSpaceOnUse" color-interpolation-filters="sRGB">
<feFlood flood-opacity="0" result="BackgroundImageFix"/>
<feColorMatrix in="SourceAlpha" type="matrix" values="0 0 0 0 0 0 0 0 0 0 0 0 0 0 0 0 0 0 127 0" result="hardAlpha"/>
<feOffset dy="4"/>
<feGaussianBlur stdDeviation="2"/>
<feComposite in2="hardAlpha" operator="out"/>
<feColorMatrix type="matrix" values="0 0 0 0 0 0 0 0 0 0 0 0 0 0 0 0 0 0 0.25 0"/>
<feBlend mode="normal" in2="BackgroundImageFix" result="effect1_dropShadow_0_1"/>
<feBlend mode="normal" in="SourceGraphic" in2="effect1_dropShadow_0_1" result="shape"/>
</filter>
</defs>
</svg>
