<svg id="visual" viewBox="0 0 960 200" width="960" height="200" xmlns="http://www.w3.org/2000/svg" xmlns:xlink="http://www.w3.org/1999/xlink" version="1.1"><path d="M0 69L22.8 72.3C45.7 75.7 91.3 82.3 137 91.3C182.7 100.3 228.3 111.7 274 107.5C319.7 103.3 365.3 83.7 411.2 76.2C457 68.7 503 73.3 548.8 78C594.7 82.7 640.3 87.3 686 85.2C731.7 83 777.3 74 823 77.2C868.7 80.3 914.3 95.7 937.2 103.3L960 111L960 201L937.2 201C914.3 201 868.7 201 823 201C777.3 201 731.7 201 686 201C640.3 201 594.7 201 548.8 201C503 201 457 201 411.2 201C365.3 201 319.7 201 274 201C228.3 201 182.7 201 137 201C91.3 201 45.7 201 22.8 201L0 201Z" fill="#4639ff" stroke-linecap="round" stroke-linejoin="miter"></path></svg>