<svg id="visual" viewBox="0 0 960 50" width="960" height="50" xmlns="http://www.w3.org/2000/svg" xmlns:xlink="http://www.w3.org/1999/xlink" version="1.1"><path d="M0 30L10 29.7C20 29.3 40 28.7 60 28.5C80 28.3 100 28.7 120 29.3C140 30 160 31 180 30.3C200 29.7 220 27.3 240 26.3C260 25.3 280 25.7 300 24.8C320 24 340 22 360 19.7C380 17.3 400 14.7 420 16.3C440 18 460 24 480 24.3C500 24.7 520 19.3 540 19.7C560 20 580 26 600 27.5C620 29 640 26 660 26.5C680 27 700 31 720 33.2C740 35.3 760 35.7 780 34.8C800 34 820 32 840 28.2C860 24.3 880 18.7 900 19C920 19.3 940 25.7 950 28.8L960 32L960 51L950 51C940 51 920 51 900 51C880 51 860 51 840 51C820 51 800 51 780 51C760 51 740 51 720 51C700 51 680 51 660 51C640 51 620 51 600 51C580 51 560 51 540 51C520 51 500 51 480 51C460 51 440 51 420 51C400 51 380 51 360 51C340 51 320 51 300 51C280 51 260 51 240 51C220 51 200 51 180 51C160 51 140 51 120 51C100 51 80 51 60 51C40 51 20 51 10 51L0 51Z" fill="#ffbd59" stroke-linecap="round" stroke-linejoin="miter"></path></svg>