<svg id="visual" viewBox="0 0 960 50" width="960" height="50" xmlns="http://www.w3.org/2000/svg" xmlns:xlink="http://www.w3.org/1999/xlink" version="1.1"><path d="M0 18L10 18.3C20 18.7 40 19.3 60 19.5C80 19.7 100 19.3 120 18.7C140 18 160 17 180 17.7C200 18.3 220 20.7 240 21.7C260 22.7 280 22.3 300 23.2C320 24 340 26 360 28.3C380 30.7 400 33.3 420 31.7C440 30 460 24 480 23.7C500 23.3 520 28.7 540 28.3C560 28 580 22 600 20.5C620 19 640 22 660 21.5C680 21 700 17 720 14.8C740 12.7 760 12.3 780 13.2C800 14 820 16 840 19.8C860 23.7 880 29.3 900 29C920 28.7 940 22.3 950 19.2L960 16L960 0L950 0C940 0 920 0 900 0C880 0 860 0 840 0C820 0 800 0 780 0C760 0 740 0 720 0C700 0 680 0 660 0C640 0 620 0 600 0C580 0 560 0 540 0C520 0 500 0 480 0C460 0 440 0 420 0C400 0 380 0 360 0C340 0 320 0 300 0C280 0 260 0 240 0C220 0 200 0 180 0C160 0 140 0 120 0C100 0 80 0 60 0C40 0 20 0 10 0L0 0Z" fill="#ffbd59" stroke-linecap="round" stroke-linejoin="miter"></path></svg>