<svg xmlns="http://www.w3.org/2000/svg" xmlns:xlink="http://www.w3.org/1999/xlink" id="visual" version="1.1" viewBox="0 0 960 129"><path d="M0 129L22.8 125.7C45.7 122.3 91.3 115.7 137 106.7C182.7 97.7 228.3 86.3 274 90.5C319.7 94.7 365.3 114.3 411.2 121.8C457 129.3 503 124.7 548.8 120C594.7 115.3 640.3 110.7 686 112.8C731.7 115 777.3 124 823 120.8C868.7 117.7 914.3 102.3 937.2 94.7L960 87L960 0L937.2 0C914.3 0 868.7 0 823 0C777.3 0 731.7 0 686 0C640.3 0 594.7 0 548.8 0C503 0 457 0 411.2 0C365.3 0 319.7 0 274 0C228.3 0 182.7 0 137 0C91.3 0 45.7 0 22.8 0L0 0Z" fill="#4639ff" stroke-linecap="round" stroke-linejoin="miter"/></svg>